<svg width="85" height="40" viewBox="0 0 85 40" fill="none" xmlns="http://www.w3.org/2000/svg">
<path d="M23.9465 13.1729C23.2264 13.1729 22.5198 13.2929 21.8265 13.5196C20.6131 11.5063 18.3998 10.2529 16.0531 10.2529C14.8931 10.2529 13.7465 10.5596 12.7331 11.1329H12.6931V13.4529L13.0131 13.1996C13.8798 12.5063 14.9331 12.1329 16.0398 12.1329C17.6931 12.1329 19.2131 12.9596 20.1198 14.3596C18.3998 15.5463 17.3064 17.4929 17.1998 19.5729V21.7063C16.4265 21.8929 15.6131 21.8929 14.8398 21.7063V19.3596C14.7198 16.9729 13.3331 14.8129 11.1998 13.7196L11.1465 6.07961L9.26645 4.59961L9.31978 13.0663C8.53312 12.9196 7.73312 12.9196 6.93312 13.0663L6.85312 4.59961H1.27979L2.71978 6.45294H4.98645L5.06645 13.6929C2.79978 14.8529 1.38645 17.1463 1.38645 19.6929C1.38645 23.4129 4.41312 26.4263 8.11978 26.4263C9.27978 26.4263 11.1865 25.7729 11.4798 25.5196H11.5065V23.1863L11.1865 23.4529C10.3198 24.1596 9.22645 24.5463 8.10645 24.5463C5.42645 24.5463 3.25312 22.3729 3.25312 19.6929C3.25312 18.2263 3.90645 16.8529 5.05312 15.9329C5.05312 15.9329 5.71978 15.4263 5.97312 15.2929C6.19978 15.1863 6.93312 14.9863 6.93312 14.9863C7.70645 14.7863 8.53312 14.7996 9.31978 14.9863V17.3729C9.45312 19.7463 10.8398 21.8929 12.9598 22.9863V34.0796L14.8265 32.5063V23.6263C15.6131 23.7729 16.4131 23.7729 17.1998 23.6263L17.0665 31.3063L18.6798 29.8529L18.8265 23.2929C21.1065 22.1329 22.7731 19.5463 22.7731 16.9996C22.7731 16.4129 22.6931 15.8396 22.5464 15.2663C22.9998 15.1329 23.4531 15.0663 23.9331 15.0663C26.6131 15.0663 28.7865 17.2396 28.7865 19.9196C28.7865 22.5996 26.6131 24.7729 23.9331 24.7729C22.8131 24.7729 21.7731 24.3996 20.9065 23.7063L20.5865 23.4529V25.7596L20.6131 25.7729C21.6265 26.3463 22.7731 26.6529 23.9331 26.6529C27.6531 26.6529 30.6665 23.6263 30.6665 19.9196C30.6665 16.2129 27.6398 13.1863 23.9331 13.1863L23.9465 13.1729ZM21.3598 16.5996C21.3198 18.7063 20.3465 20.6263 18.6665 21.8929L18.6931 20.6396C18.7331 18.5863 19.6665 16.6929 21.2798 15.4263C21.3465 15.8129 21.3731 16.2129 21.3598 16.5996ZM13.4931 20.2929L13.5598 21.7329C11.9865 20.5729 11.0265 18.7863 10.9465 16.8396L10.8798 15.3996C12.4531 16.5596 13.4131 18.3463 13.4931 20.2929Z" fill="url(#paint0_linear_11003_1747)" stroke="url(#paint1_linear_11003_1747)" stroke-width="0.3" stroke-miterlimit="10"/>
<path d="M17.9066 35.1472C18.4295 35.1472 18.8533 34.7234 18.8533 34.2006C18.8533 33.6777 18.4295 33.2539 17.9066 33.2539C17.3838 33.2539 16.96 33.6777 16.96 34.2006C16.96 34.7234 17.3838 35.1472 17.9066 35.1472Z" fill="url(#paint2_linear_11003_1747)" stroke="url(#paint3_linear_11003_1747)" stroke-width="0.25" stroke-miterlimit="10"/>
<g clip-path="url(#clip0_11003_1747)">
<path d="M74.8731 12.3877C71.7033 12.3877 69.2752 14.7242 69.2752 17.848C69.2752 17.9693 69.2795 18.0906 69.2883 18.2097L69.2119 27.8089H71.7578V22.3848C72.6391 22.9338 73.7059 23.2466 74.8731 23.2466C78.045 23.2466 80.4709 20.9441 80.4709 17.8501C80.4709 14.7561 78.045 12.3877 74.8731 12.3877ZM74.8731 21.0825C72.9664 21.0825 71.5047 19.6972 71.5047 17.8352C71.5047 15.9733 72.9642 14.5518 74.8731 14.5518C76.7819 14.5518 78.2392 15.9563 78.2392 17.8352C78.2392 19.7142 76.7797 21.0825 74.8731 21.0825Z" fill="url(#paint4_linear_11003_1747)"/>
<path d="M36.8835 14.3574L39.0695 14.3702L39.0716 27.8464H41.515L41.5193 12.4082L36 12.4167L36.8835 14.3574Z" fill="url(#paint5_linear_11003_1747)"/>
<path d="M48.7076 16.8918C48.4043 16.8918 48.0836 16.928 47.7433 16.9833L50.8455 12.4082H47.9898L44.6041 17.4812C43.2231 19.5475 42.8457 20.7285 42.8828 22.2031C42.9766 25.3397 45.2847 27.8486 48.7076 27.8486C52.1304 27.8486 54.5323 25.3397 54.5323 22.2776C54.5323 19.2155 52.3377 16.8897 48.7076 16.8897V16.8918ZM48.7076 25.3589C46.8532 25.3589 45.4352 23.9927 45.4352 22.1669C45.4352 20.3412 46.8532 19.0112 48.7076 19.0112C50.5619 19.0112 51.9799 20.3582 51.9799 22.1669C51.9799 23.9757 50.5619 25.3589 48.7076 25.3589Z" fill="url(#paint6_linear_11003_1747)"/>
<path d="M61.269 12.3174C57.7458 12.3174 55.4355 14.8305 55.4355 17.8968C55.4355 20.9632 57.6324 23.2912 61.269 23.2912C61.5723 23.2912 61.893 23.255 62.2355 23.1975L59.1289 27.779H61.989L65.3791 22.6996C66.7622 20.6312 67.1396 19.4481 67.1025 17.9713C67.0065 14.8305 64.6963 12.3174 61.269 12.3174ZM61.269 21.1675C59.4125 21.1675 57.9923 19.8184 57.9923 18.0075C57.9923 16.1966 59.4125 14.8113 61.269 14.8113C63.1255 14.8113 64.5457 16.1796 64.5457 18.0075C64.5457 19.8354 63.1255 21.1675 61.269 21.1675Z" fill="url(#paint7_linear_11003_1747)"/>
<path d="M82.356 15.3682V27.8273H84.9978L85 16.6471L82.356 15.3682Z" fill="url(#paint8_linear_11003_1747)"/>
<path d="M83.7021 14.4689C84.3588 14.4689 84.8911 13.9496 84.8911 13.3091C84.8911 12.6686 84.3588 12.1494 83.7021 12.1494C83.0455 12.1494 82.5132 12.6686 82.5132 13.3091C82.5132 13.9496 83.0455 14.4689 83.7021 14.4689Z" fill="url(#paint9_linear_11003_1747)"/>
</g>
<defs>
<linearGradient id="paint0_linear_11003_1747" x1="15.9731" y1="4.59961" x2="15.9731" y2="34.0796" gradientUnits="userSpaceOnUse">
<stop stop-color="#175C7E"/>
<stop offset="0.485688" stop-color="#187187"/>
<stop offset="1" stop-color="#72AF94"/>
</linearGradient>
<linearGradient id="paint1_linear_11003_1747" x1="15.9731" y1="4.59961" x2="15.9731" y2="34.0796" gradientUnits="userSpaceOnUse">
<stop stop-color="#175C7E"/>
<stop offset="0.485688" stop-color="#187187"/>
<stop offset="1" stop-color="#72AF94"/>
</linearGradient>
<linearGradient id="paint2_linear_11003_1747" x1="17.9066" y1="33.2539" x2="17.9066" y2="35.1472" gradientUnits="userSpaceOnUse">
<stop stop-color="#175C7E"/>
<stop offset="0.485688" stop-color="#187187"/>
<stop offset="1" stop-color="#72AF94"/>
</linearGradient>
<linearGradient id="paint3_linear_11003_1747" x1="17.9066" y1="33.2539" x2="17.9066" y2="35.1472" gradientUnits="userSpaceOnUse">
<stop stop-color="#175C7E"/>
<stop offset="0.485688" stop-color="#187187"/>
<stop offset="1" stop-color="#72AF94"/>
</linearGradient>
<linearGradient id="paint4_linear_11003_1747" x1="74.8414" y1="12.3877" x2="74.8414" y2="27.8089" gradientUnits="userSpaceOnUse">
<stop stop-color="#17365C"/>
<stop offset="0.264423" stop-color="#175C7E"/>
<stop offset="0.629808" stop-color="#187187"/>
<stop offset="1" stop-color="#72AF94"/>
</linearGradient>
<linearGradient id="paint5_linear_11003_1747" x1="38.7597" y1="12.4082" x2="38.7597" y2="27.8464" gradientUnits="userSpaceOnUse">
<stop stop-color="#17365C"/>
<stop offset="0.264423" stop-color="#175C7E"/>
<stop offset="0.629808" stop-color="#187187"/>
<stop offset="1" stop-color="#72AF94"/>
</linearGradient>
<linearGradient id="paint6_linear_11003_1747" x1="48.7064" y1="12.4082" x2="48.7064" y2="27.8486" gradientUnits="userSpaceOnUse">
<stop stop-color="#17365C"/>
<stop offset="0.264423" stop-color="#175C7E"/>
<stop offset="0.629808" stop-color="#187187"/>
<stop offset="1" stop-color="#72AF94"/>
</linearGradient>
<linearGradient id="paint7_linear_11003_1747" x1="61.2703" y1="12.3174" x2="61.2703" y2="27.779" gradientUnits="userSpaceOnUse">
<stop stop-color="#17365C"/>
<stop offset="0.264423" stop-color="#175C7E"/>
<stop offset="0.629808" stop-color="#187187"/>
<stop offset="1" stop-color="#72AF94"/>
</linearGradient>
<linearGradient id="paint8_linear_11003_1747" x1="83.678" y1="15.3682" x2="83.678" y2="27.8273" gradientUnits="userSpaceOnUse">
<stop stop-color="#17365C"/>
<stop offset="0.264423" stop-color="#175C7E"/>
<stop offset="0.629808" stop-color="#187187"/>
<stop offset="1" stop-color="#72AF94"/>
</linearGradient>
<linearGradient id="paint9_linear_11003_1747" x1="83.7021" y1="12.1494" x2="83.7021" y2="14.4689" gradientUnits="userSpaceOnUse">
<stop stop-color="#17365C"/>
<stop offset="0.264423" stop-color="#175C7E"/>
<stop offset="0.629808" stop-color="#187187"/>
<stop offset="1" stop-color="#72AF94"/>
</linearGradient>
<clipPath id="clip0_11003_1747">
<rect width="49" height="16" fill="white" transform="translate(36 12)"/>
</clipPath>
</defs>
</svg>
